# xmcd CD database file
#
# Track frame offsets:
#	150
#	15905
#	32537
#	52370
#	65607
#	85607
#	110785
#	132030
#	137522
#	156800
#	174155
#	199780
#	219960
#	245262
#	265705
#
# Disc length: 3787 seconds
#
# Revision: 6
# Processed by: cddbd v1.5PL3 Copyright (c) Steve Scherf et al.
# Submitted via: CDex 1.50beta10
#
DISCID=c10ec90f
DTITLE=空気公団 - くうきこうだん
DYEAR=1999
DGENRE=Pop
TTITLE0=たまに笑ってみたり
TTITLE1=レモンを買おう
TTITLE2=休日
TTITLE3=猫になる
TTITLE4=夜から朝へ
TTITLE5=今朝少しそう思った(320mix)
TTITLE6=ハナノカゲ
TTITLE7=2月24日
TTITLE8=窓辺
TTITLE9=別れ
TTITLE10=素晴らしき一日
TTITLE11=休日（スタジオライブ）
TTITLE12=今朝少しそう思った
TTITLE13=僕らのひみつ
TTITLE14=さかさま
EXTD=YEAR: 1999
EXTT0=
EXTT1=
EXTT2=
EXTT3=
EXTT4=
EXTT5=
EXTT6=
EXTT7=
EXTT8=
EXTT9=
EXTT10=
EXTT11=
EXTT12=
EXTT13=
EXTT14=
PLAYORDER=
